<svg width="315" height="250" viewBox="0 0 315 250" fill="none" xmlns="http://www.w3.org/2000/svg">
<path d="M201.071 5.54193C268.731 -17.7802 337.403 36.7216 308.017 90.4202L303.159 99.2986C294.187 115.693 294.187 134.307 303.159 150.701L308.017 159.58C337.403 213.278 268.731 267.78 201.071 244.458L189.884 240.602C169.227 233.482 145.773 233.482 125.116 240.602L113.929 244.458C46.2691 267.78 -22.403 213.278 6.98285 159.58L11.8415 150.701C20.8131 134.307 20.8131 115.693 11.8414 99.2986L6.98284 90.4202C-22.403 36.7215 46.2692 -17.7802 113.93 5.54195L125.116 9.39797C145.773 16.5183 169.227 16.5183 189.884 9.39795L201.071 5.54193Z" fill="#293A4C"/>
</svg>
